<?xml version="1.0" encoding="UTF-8" standalone="no"?>
<!-- Created with Inkscape (http://www.inkscape.org/) -->

<svg
   width="211.35831mm"
   height="67.354362mm"
   viewBox="0 0 798.83456 254.56767"
   version="1.1"
   id="svg1"
   inkscape:version="1.4 (86a8ad7, 2024-10-11)"
   sodipodi:docname="绘图.svg"
   xmlns:inkscape="http://www.inkscape.org/namespaces/inkscape"
   xmlns:sodipodi="http://sodipodi.sourceforge.net/DTD/sodipodi-0.dtd"
   xmlns="http://www.w3.org/2000/svg"
   xmlns:svg="http://www.w3.org/2000/svg">
  <sodipodi:namedview
     id="namedview1"
     pagecolor="#ffffff"
     bordercolor="#111111"
     borderopacity="1"
     inkscape:showpageshadow="0"
     inkscape:pageopacity="0"
     inkscape:pagecheckerboard="1"
     inkscape:deskcolor="#d1d1d1"
     inkscape:document-units="mm"
     inkscape:zoom="1.016756"
     inkscape:cx="393.89981"
     inkscape:cy="95.893213"
     inkscape:window-width="1920"
     inkscape:window-height="1009"
     inkscape:window-x="-8"
     inkscape:window-y="-8"
     inkscape:window-maximized="1"
     inkscape:current-layer="layer1" />
  <defs
     id="defs1" />
  <g
     inkscape:label="图层 1"
     inkscape:groupmode="layer"
     id="layer1"
     transform="translate(-166.89518,-300.51179)">
    <g
       id="text1"
       style="font-style:italic;font-size:115.652px;font-family:Asap;-inkscape-font-specification:'Asap Italic';fill:#ffffff;stroke-width:16"
       aria-label="在左侧输入文字&#10;以生成预览">
      <path
         style="font-style:normal;font-family:'LXGW Neo XiHei Screen';-inkscape-font-specification:'LXGW Neo XiHei Screen';text-align:center;text-anchor:middle;fill:#28220b"
         d="m 271.42245,401.08611 h -69.0072 v -8.18825 h 28.68712 v -31.34124 h -23.71769 v -7.84943 h 23.71769 v -21.28945 h 8.64002 v 21.28945 h 24.84711 v 7.84943 h -24.84711 v 31.34124 h 31.68006 z m -74.03309,5.30825 h -8.8659 v -45.06362 q -7.00237,8.30119 -16.15062,15.69885 l -5.47766,-6.88942 q 13.15768,-10.50355 21.62828,-23.15299 v -8.30119 l 4.06589,1.69412 q 3.44472,-6.15531 6.60707,-13.66591 h -26.42828 v -8.07531 h 29.4777 q 2.08942,-6.04237 4.6306,-16.26357 l 9.37414,2.14589 q -2.93648,9.99532 -4.40472,14.11768 h 58.05189 v 8.07531 h -61.04483 l -0.22589,0.5647 q -4.68707,11.74591 -11.23767,21.85417 z m 188.72509,-5.87295 h -81.99546 v -8.41414 h 35.63302 V 361.7825 h -23.77417 q -11.68944,19.14357 -26.14594,30.21183 l -6.43766,-7.11531 q 26.48476,-19.6518 36.70596,-53.64717 h -32.24477 v -8.52707 h 34.61654 q 2.3153,-9.65649 3.6706,-19.87769 l 9.14825,0.56471 q -1.80706,11.97179 -3.6706,19.31298 h 52.80011 v 8.52707 h -55.1154 q -3.78354,12.98827 -8.64002,22.3624 h 55.73658 v 8.18825 h -27.27535 v 30.32477 h 36.98831 z m 40.88479,5.36471 -5.70354,-6.38119 q 17.16709,-9.26119 20.72475,-26.54123 2.03294,-10.10825 2.03294,-28.12241 v -20.6118 h 8.24473 v 20.49886 q 0,22.08005 -2.93648,32.86595 -4.80001,17.61886 -22.3624,28.29182 z m 62.73895,-0.50823 q -6.83295,0 -13.94826,-0.56471 l -1.97647,-9.20472 q 9.26119,1.12941 14.51297,1.12941 3.2753,0 3.2753,-3.16236 v -87.75547 h 8.52707 v 90.18371 q 0,9.37414 -10.39061,9.37414 z m -6.83295,-24.39535 H 474.4911 V 316.0977 h 8.41414 z m -19.93416,22.13652 q -6.38119,-10.67296 -12.93179,-18.1271 l 6.72001,-4.91295 q 6.83296,7.17178 13.10121,16.82827 z m 3.89648,-24.33887 h -7.84943 v -61.66601 h -23.09652 q 0,54.1554 -0.11294,61.66601 h -7.73648 v -69.4025 h 38.79537 z m -47.32245,27.61417 h -8.41414 v -57.48718 q -3.16235,6.43766 -8.4706,14.06121 l -4.6306,-7.79296 q 12.81885,-19.99063 20.61181,-53.5907 l 8.4706,2.14589 q -4.06589,15.86827 -7.56707,25.35535 z m 135.19086,-61.1013 -4.51766,-6.72002 q 20.32945,-13.38355 29.25182,-36.25419 h 8.69649 q 10.2212,19.99063 32.5836,32.92242 l -5.53413,7.28472 q -7.9059,-4.85648 -13.60944,-10.05178 v 5.47766 h -32.01889 v -4.74354 q -6.49413,6.77648 -14.85179,12.08473 z m 44.49891,-14.96474 q -9.2612,-8.4706 -14.90827,-18.24004 -4.40471,9.31767 -12.1412,18.24004 z m -35.35066,76.06604 H 556.2042 V 344.446 h 28.06594 v 53.76011 q 0,6.83295 -6.88942,6.83295 -2.88001,0 -8.41414,-0.67765 l -1.01647,-8.4706 q 4.34824,1.18588 7.17178,1.18588 1.46824,0 1.46824,-2.54118 v -11.23767 h -12.70591 z m 12.70591,-46.24951 v -8.41413 h -12.70591 v 8.41413 z m 0,16.2071 v -9.2612 h -12.70591 v 9.2612 z m 22.41887,11.35061 h -7.96237 v -40.15067 h 7.96237 z m 6.38119,17.78827 q -4.46119,0 -10.44708,-0.79059 l -1.12942,-8.80943 q 5.25178,1.29882 9.20473,1.29882 2.65412,0 2.65412,-3.38824 v -50.14598 h 8.18825 v 53.64717 q 0,8.18825 -8.4706,8.18825 z m -60.02836,1.18588 h -8.24472 V 383.1849 q -8.58355,1.97647 -19.53887,3.6706 L 515.15,378.21548 q 12.02826,-1.52471 21.96711,-3.55766 v -14.68238 h -16.54592 l -3.89648,-2.76706 q 7.00237,-11.23767 11.46355,-28.06594 h -11.7459 v -8.18825 h 13.89179 q 2.20236,-9.20473 3.61413,-18.69181 l 8.18825,2.03295 q -1.46824,8.35766 -3.55766,16.65886 h 17.90122 v 8.18825 h -20.0471 q -4.23531,14.79532 -8.07531,22.98357 h 8.80943 v -16.88474 h 8.24472 v 16.88474 h 7.9059 v 7.84943 h -7.9059 v 12.87532 q 4.17883,-1.01647 8.92237,-2.37177 l 0.62118,7.56708 q -4.68707,1.69412 -9.54355,3.04941 z m 94.70138,-2.20235 -7.17178,-8.01884 q 35.35066,-23.15299 43.48244,-70.58838 -5.64707,-9.14826 -13.4965,-13.27062 l 6.15531,-6.49413 q 8.4706,4.85648 14.11767,13.04473 5.70354,8.18825 10.39061,18.29651 4.74354,10.10826 10.10826,20.78122 5.42119,10.61649 13.1012,20.27298 7.73649,9.65649 19.70828,17.22357 l -8.80943,7.62354 q -11.5765,-8.30119 -19.36945,-18.6918 -7.73649,-10.44708 -13.27062,-21.51534 -5.47766,-11.06826 -10.10826,-21.28945 -0.96,-2.08942 -1.58118,-3.27531 -7.90589,38.68244 -43.25655,65.90132 z m 159.36033,-35.57655 q 12.25414,-14.23061 17.50592,-35.80242 h -38.56949 q 7.5106,22.30592 21.06357,35.80242 z m -44.16009,36.42361 -6.60707,-9.20473 q 28.5177,-6.83295 44.44244,-20.78122 -15.69886,-16.32003 -24.11299,-42.24008 h -20.10357 v -8.18826 h 52.17893 q -6.32472,-10.16472 -14.4565,-17.84474 l 7.00237,-5.47766 q 8.18825,7.45414 15.92473,18.07063 l -7.34119,5.25177 h 46.6448 v 8.18826 h -21.79769 q -6.66354,25.86358 -20.72475,41.84479 15.98121,12.19767 42.24009,19.14357 l -6.88943,9.26119 q -25.92005,-8.35766 -42.0142,-22.02357 -18.35298,15.92474 -44.38597,24.00005 z m 153.71323,1.29882 q -6.21178,0 -15.36003,-0.90353 l -1.52471,-9.26119 q 10.39061,1.41176 15.75533,1.41176 2.93647,0 2.93647,-2.54118 v -23.37887 h -47.43539 v -8.18825 h 46.92716 v -9.48708 q 11.35061,-4.46119 19.42592,-9.99531 h -47.83069 v -8.3012 h 61.94836 l 4.23531,4.57413 Q 933.0332,352.23895 919.5367,358.5072 v 5.25178 h 46.19304 v 8.18825 h -45.57186 v 26.03299 q 0,5.08237 -2.42824,6.83296 -2.42824,1.80706 -8.75296,1.80706 z m 52.40481,-65.05425 h -9.37413 v -16.09415 h -75.33192 v 16.09415 h -9.2612 v -24.05652 h 46.41892 q -3.89648,-6.21178 -10.10826,-12.64944 l 7.39767,-4.34824 q 7.05883,6.72001 12.76238,15.19062 l -3.10589,1.80706 h 40.60243 z"
         id="path1" />
      <path
         style="font-style:normal;font-family:'LXGW Neo XiHei Screen';-inkscape-font-specification:'LXGW Neo XiHei Screen';text-align:center;text-anchor:middle;fill:#28220b"
         d="m 295.53544,538.47706 -4.85648,-8.58354 4.29178,-1.92001 v -69.12014 h 9.09178 v 64.88484 l 7.22825,-3.6706 q 13.55297,-7.17177 29.3083,-17.44944 l 2.25882,7.96237 q -22.53181,16.15062 -47.32245,27.89652 z m 43.31303,-53.64716 q -8.97884,-13.04474 -24.05652,-25.75065 l 7.00237,-6.09883 q 16.54592,13.72238 24.45182,25.18593 z m -19.36945,67.31307 -5.87295,-8.07531 q 34.72948,-11.57649 43.20009,-32.13183 6.1553,-15.13415 6.1553,-46.02362 v -11.29414 h 9.37414 v 9.71296 q 0,36.98831 -7.9059,53.30834 13.15768,9.71297 25.35535,22.64476 l -7.28472,8.01884 q -10.56002,-13.21415 -22.58828,-23.09652 -12.02826,16.60239 -40.43303,26.93652 z m 182.90861,-3.89647 h -99.44491 v -8.18826 h 45.34598 v -25.69417 h -31.79301 v -8.18825 h 31.79301 v -22.47534 h -25.80711 q -5.30825,10.56002 -12.70591,19.25651 l -6.9459,-6.60707 q 13.27062,-15.19062 19.0871,-39.19067 l 9.03531,2.25883 q -2.37177,9.43061 -4.96942,16.09415 h 22.30593 v -25.80711 h 9.48708 v 25.80711 h 38.28713 v 8.18825 h -38.28713 v 22.47534 h 33.54359 v 8.18825 h -33.54359 v 25.69417 h 44.61185 z m 18.35298,5.08236 -6.88943,-6.9459 q 11.35062,-15.52944 11.35062,-43.31303 v -33.5436 h 42.18361 q -0.96,-8.97884 -1.69412,-20.55533 h 9.26119 q 0.45177,10.72943 1.52471,19.99063 h 22.24946 q -6.21178,-7.96237 -11.91532,-12.5365 l 7.05884,-5.42119 q 6.43766,4.85648 12.42356,12.5365 l -7.45414,5.42119 h 18.86122 v 8.18825 h -40.03773 q 3.38824,23.15299 10.16473,37.27066 8.4706,-12.59296 14.79532,-29.76006 l 8.01884,3.78354 q -7.45413,19.53886 -18.07063,34.78595 5.5906,9.2612 12.19768,14.4565 2.37177,1.92001 3.21883,1.92001 1.58118,0 3.33177,-15.47297 l 8.24472,4.8 q -2.65412,22.24946 -9.60002,22.24946 -2.88,0 -7.56707,-3.2753 -9.03532,-6.43766 -15.98121,-16.99768 -10.39061,12.5365 -25.75064,22.24946 l -6.38119,-7.22825 q 15.52944,-9.14826 27.44476,-23.26593 -9.31767,-18.18357 -13.21415,-44.95068 h -34.16477 v 15.4165 h 28.913 q -0.90353,27.16241 -2.42824,34.61654 -1.97648,9.31767 -11.5765,9.31767 -5.25177,0 -11.63296,-1.07295 l -1.01647,-9.14825 q 8.92237,1.69412 12.19767,1.69412 3.04942,0 3.72707,-3.55765 1.12941,-5.70355 1.80706,-24.22594 h -19.99063 v 2.54119 q 0,30.77653 -13.60944,50.03304 z m 207.5863,-25.12946 h -8.18825 v -44.89421 h -29.70359 v 44.89421 h -8.18826 v -52.51776 h 15.75533 q 1.52471,-8.07531 2.3153,-13.27061 h -22.92711 v -8.07531 h 55.5107 v 8.07531 h -23.43534 l -3.44471,13.27061 h 22.30593 z m 0.73412,25.46828 q -11.23767,-11.68943 -22.58828,-19.20004 l 7.22825,-5.13883 q 14.23061,9.54355 22.70122,18.01415 z m -53.08246,1.41177 -5.87296,-7.68002 q 30.55065,-7.39766 30.55065,-36.59301 v -20.61181 h 8.52708 v 21.0071 q 0,32.5836 -33.20477,43.87774 z m -27.50124,-2.42824 q -5.02589,0 -10.44708,-0.62118 l -1.52471,-8.58354 q 5.70354,1.12941 10.39061,1.12941 2.54118,0 2.54118,-3.21883 v -42.0142 h -18.74827 v -7.84943 h 25.58123 q -8.07531,-10.72944 -18.80474,-20.4424 l 5.81648,-5.08236 q 4.12236,3.38824 9.48708,8.69649 6.66354,-7.11531 9.99531,-12.19767 h -30.38124 v -7.84943 h 38.23067 l 4.00942,4.34824 q -7.05884,11.1812 -16.7718,21.23299 2.93648,3.44471 5.08236,6.1553 l -6.32472,5.13884 h 17.33651 l 4.91295,3.95295 q -4.91295,15.13415 -11.29414,26.54123 l -7.17178,-3.89648 q 6.15531,-11.01179 8.47061,-18.74827 h -11.12473 v 45.23303 q 0,4.68707 -2.08942,6.38119 -2.08941,1.69412 -7.17178,1.69412 z m 186.07098,-61.38365 q -10.50355,-7.56708 -23.15299,-13.32709 l 5.1953,-6.38119 q 11.35062,4.51766 23.88711,11.29414 z m -8.75296,59.80247 q -17.28004,0 -20.61181,-1.41177 -4.17883,-1.63765 -4.17883,-7.11531 v -19.42592 q -0.45177,1.12942 -0.96,2.25883 -3.04942,6.72001 -9.37414,12.5365 -6.32472,5.81648 -16.09415,9.99531 -9.76943,4.17883 -23.37887,5.92943 l -4.96942,-8.92238 q 16.65886,-1.29882 27.16241,-6.09883 10.50355,-4.80001 15.52944,-11.97179 5.08236,-7.17178 5.08236,-15.30356 v -4.2353 h 9.14826 v 4.57412 q 0,5.47766 -2.03295,10.95532 h 8.41414 v 16.54591 q 0,2.82354 2.37177,3.33178 2.42824,0.50823 15.52944,0.50823 12.87532,0 14.00473,-2.37177 1.12942,-2.20235 1.29883,-10.10825 l 8.69649,2.99294 q -0.16941,12.19768 -4.91295,15.19062 -3.38824,2.14589 -20.72475,2.14589 z m 7.56707,-22.47534 h -8.8659 v -26.54123 h -51.44481 v 26.54123 h -8.8659 V 494.2605 h 69.17661 z m -68.21661,-40.43302 h -8.52707 v -34.05184 h 8.52707 z m 20.83769,2.3153 h -8.52707 v -41.78832 h 8.52707 z m 11.97179,-3.21883 -5.76001,-6.15531 q 11.52002,-12.93179 15.92474,-34.33419 l 7.96237,2.54118 q -1.41177,5.81649 -2.93648,10.27767 h 34.05184 v 7.79296 h -36.93184 q -4.96943,11.91532 -12.31062,19.87769 z"
         id="path2" />
    </g>
  </g>
</svg>
